<?xml version="1.0" standalone="no"?>
<!DOCTYPE svg PUBLIC "-//W3C//DTD SVG 20010904//EN"
 "http://www.w3.org/TR/2001/REC-SVG-20010904/DTD/svg10.dtd">
<svg version="1.0" xmlns="http://www.w3.org/2000/svg"
 width="1024.000000pt" height="1024.000000pt" viewBox="0 0 1024.000000 1024.000000"
 preserveAspectRatio="xMidYMid meet">

<g transform="translate(0.000000,1024.000000) scale(0.100000,-0.100000)"
fill="#000000" stroke="none">
<path d="M7 10233 c-4 -3 -7 -2307 -7 -5120 l0 -5113 5120 0 5120 0 0 5120 0
5120 -5113 0 c-2813 0 -5117 -3 -5120 -7z m3042 -2524 c45 -108 119 -216 224
-326 73 -76 124 -117 247 -198 159 -105 642 -403 833 -514 59 -35 107 -65 107
-68 0 -2 -16 -25 -35 -51 -92 -120 -130 -245 -130 -432 0 -156 18 -230 82
-339 41 -69 184 -228 227 -250 14 -8 26 -18 26 -22 0 -4 -28 -23 -63 -43 -92
-51 -213 -139 -284 -207 l-62 -59 -92 62 c-172 116 -269 224 -346 385 -68 143
-86 230 -81 387 4 110 9 144 33 215 31 90 79 171 144 240 22 24 41 46 41 47 0
4 -49 32 -355 199 -148 81 -306 171 -351 201 -155 102 -256 237 -305 409 -45
158 -24 368 52 516 l32 64 12 -70 c7 -38 27 -104 44 -146z m3397 -257 c0 -104
4 -127 32 -210 56 -164 146 -273 279 -339 71 -35 83 -38 162 -38 76 0 94 4
154 32 37 18 67 33 67 35 0 2 -39 3 -88 3 -77 0 -92 3 -133 27 -46 27 -149
131 -149 150 0 5 20 -8 45 -30 106 -93 321 -106 461 -28 l42 23 -10 -36 c-21
-76 -79 -169 -149 -236 l-69 -67 82 -92 c46 -50 151 -165 234 -256 228 -250
372 -416 390 -452 26 -49 21 -111 -15 -228 -39 -123 -78 -205 -118 -242 -67
-63 -203 -95 -303 -70 -100 25 -123 44 -226 180 -77 102 -103 130 -132 140
-78 28 -394 123 -397 120 -1 -2 44 -77 102 -168 110 -174 213 -375 258 -500
36 -102 76 -252 68 -259 -3 -3 -7 -1 -10 5 -18 51 -121 204 -266 397 -317 422
-458 643 -511 800 -43 127 -44 263 -3 392 l22 70 8 -70 c16 -152 73 -265 187
-372 56 -54 180 -107 407 -177 117 -35 230 -73 250 -83 25 -12 66 -54 120
-123 114 -144 158 -190 183 -190 12 0 43 9 70 21 43 18 51 27 78 87 40 86 62
149 62 176 0 13 -45 69 -122 151 -67 72 -194 211 -282 310 -88 99 -206 230
-262 290 -94 101 -106 111 -153 122 -178 42 -335 191 -406 386 -14 37 -25 56
-29 47 -15 -43 -26 -148 -20 -200 l7 -59 -47 -47 c-25 -26 -48 -45 -49 -43 -2
2 -12 33 -23 69 -25 90 -25 261 1 350 20 72 70 181 106 232 22 31 90 118 93
118 0 0 1 -53 2 -118z m-4098 -134 c62 -127 175 -241 342 -345 212 -133 797
-443 836 -443 21 0 17 -11 -16 -57 -16 -22 -44 -74 -61 -114 -17 -41 -32 -75
-34 -77 -6 -7 -438 151 -600 220 -209 89 -297 141 -385 228 -90 88 -147 192
-181 330 -18 71 -21 104 -16 205 4 107 12 145 43 225 4 9 13 -11 24 -47 9 -35
31 -91 48 -125z m3460 78 c96 -14 129 -26 75 -26 -47 0 -201 -28 -278 -51 -83
-25 -240 -101 -324 -158 -33 -23 -113 -87 -178 -142 -137 -117 -213 -171 -289
-205 -67 -30 -73 -30 -46 -1 11 12 52 74 90 137 83 136 134 199 222 269 193
153 457 218 728 177z m263 -333 c0 -88 6 -149 18 -195 l17 -68 -56 -68 c-71
-87 -131 -202 -166 -317 -24 -80 -27 -106 -28 -235 0 -195 30 -314 130 -512
19 -37 34 -69 34 -72 0 -2 -21 3 -47 11 -181 55 -428 80 -636 64 -72 -6 -136
-11 -143 -11 -16 0 -68 136 -90 241 -29 128 -26 374 4 493 44 169 169 376 303
500 149 138 360 248 537 280 134 25 122 36 123 -111z m-1077 -335 c-90 -123
-134 -238 -154 -404 -22 -183 7 -438 65 -556 l26 -53 -66 69 c-229 241 -235
641 -13 867 45 46 168 138 185 139 2 0 -18 -28 -43 -62z m-2335 -393 c132 -66
305 -128 687 -246 l31 -10 12 -114 c6 -63 14 -121 17 -130 9 -21 -13 -20 -216
15 -249 43 -333 65 -430 112 -184 89 -320 290 -320 473 l0 35 67 -46 c37 -25
105 -65 152 -89z m4137 51 c45 -45 47 -95 5 -137 -83 -83 -214 17 -157 120 33
59 102 67 152 17z m-3871 -705 c91 -24 309 -57 436 -67 l85 -7 34 -65 c18 -35
53 -91 77 -124 25 -33 42 -62 40 -64 -2 -3 -58 -12 -123 -20 -220 -30 -382 -6
-501 72 -108 73 -213 217 -230 318 l-6 38 54 -30 c30 -17 90 -40 134 -51z
m2848 -296 c123 -22 234 -56 361 -109 372 -156 598 -385 689 -698 20 -71 21
-94 24 -843 4 -869 5 -862 -69 -1015 -53 -110 -154 -215 -250 -260 -134 -63
-80 -61 -1511 -58 l-1302 3 -73 23 c-146 47 -287 126 -396 223 -149 133 -270
346 -318 562 -26 120 -21 348 11 469 87 332 359 602 708 703 47 14 87 24 89
22 2 -2 -9 -43 -23 -92 -23 -81 -26 -110 -29 -279 l-3 -189 -62 -35 c-126 -71
-231 -212 -259 -349 -20 -94 -8 -255 24 -333 52 -128 173 -257 293 -314 90
-43 169 -59 288 -59 133 0 184 11 295 65 69 33 101 57 172 128 74 73 94 101
133 182 44 91 74 204 75 284 0 20 6 34 16 38 21 8 224 8 292 0 l52 -7 0 -61 0
-61 67 1 c38 1 114 -1 171 -4 l102 -5 0 -213 c0 -143 -4 -215 -11 -220 -6 -3
-114 -3 -240 1 l-229 7 0 194 0 194 -80 0 -80 0 0 -285 0 -285 910 0 910 0 0
553 0 552 -147 -4 c-82 -2 -311 0 -510 4 l-363 7 0 170 0 169 83 -3 82 -3 3
-82 3 -83 424 0 425 0 0 415 0 415 -425 0 -425 0 0 -240 0 -240 -85 0 -85 0 0
240 0 240 -407 0 -406 0 6 -257 c4 -141 7 -366 7 -500 l0 -243 150 0 150 0 0
-90 0 -90 -191 2 -190 3 -28 71 c-88 225 -275 387 -516 447 l-91 22 13 85 c60
384 369 780 756 969 174 85 338 134 532 160 99 14 383 6 488 -14z m-1932 -290
c50 -36 113 -77 140 -92 27 -16 49 -30 49 -33 0 -10 -195 -82 -260 -96 -83
-17 -240 -18 -305 0 -81 21 -155 64 -215 125 -49 49 -106 138 -96 149 2 2 26
-4 53 -14 67 -24 261 -22 413 4 63 11 119 20 123 21 4 1 49 -28 98 -64z m1497
-692 l-3 -238 -167 -3 -168 -2 0 -80 0 -80 -70 0 -70 0 0 320 0 320 240 0 240
0 -2 -237z m1002 -3 l0 -240 -250 0 -250 0 0 240 0 240 250 0 250 0 0 -240z
m850 -42 c100 -209 140 -351 160 -579 18 -205 -6 -441 -67 -634 -30 -96 -102
-248 -137 -290 l-25 -30 -1 828 c0 455 3 827 6 827 3 0 32 -55 64 -122z
m-3073 -509 c80 -39 164 -123 205 -207 29 -59 33 -77 36 -168 3 -78 0 -115
-13 -156 -36 -111 -116 -202 -224 -255 -50 -25 -67 -28 -156 -28 -82 0 -109 4
-147 22 -67 31 -142 104 -169 166 -25 59 -30 151 -11 208 12 35 76 109 94 109
5 0 27 -37 48 -82 52 -113 92 -148 170 -148 51 0 88 19 129 65 46 53 43 97
-14 210 -46 92 -67 158 -80 254 l-7 54 38 -7 c22 -4 67 -20 101 -37z m1223
-119 l0 -90 165 0 165 0 0 -175 0 -175 -69 0 c-38 0 -76 -3 -85 -6 -14 -5 -16
6 -16 80 l0 86 -85 0 -85 0 0 95 0 95 -80 0 -80 0 0 83 c0 46 3 87 7 90 3 4
42 7 85 7 l78 0 0 -90z m670 -185 l0 -95 -85 0 -85 0 0 95 0 95 85 0 85 0 0
-95z m350 0 l0 -95 -90 0 -90 0 0 95 0 95 90 0 90 0 0 -95z m-190 -375 l0 -90
-165 0 -165 0 0 90 0 90 165 0 165 0 0 -90z m-500 -25 l0 -75 83 0 82 0 -3
-90 -3 -90 -165 0 -164 0 0 165 0 165 85 0 85 0 0 -75z m688 -162 l3 -93 -91
0 -90 0 0 88 c0 49 3 92 7 96 4 4 44 6 88 4 l80 -3 3 -92z"/>
<path d="M5000 3105 l0 -85 95 0 95 0 0 85 0 85 -95 0 -95 0 0 -85z"/>
<path d="M5000 4405 l0 -95 95 0 95 0 0 95 0 95 -95 0 -95 0 0 -95z"/>
<path d="M5990 4405 l0 -95 100 0 100 0 0 95 0 95 -100 0 -100 0 0 -95z"/>
</g>
</svg>
